<?xml version="1.0" standalone="no"?>
<!DOCTYPE svg PUBLIC "-//W3C//DTD SVG 20010904//EN"
 "http://www.w3.org/TR/2001/REC-SVG-20010904/DTD/svg10.dtd">
<svg version="1.0" xmlns="http://www.w3.org/2000/svg"
 width="260.000000pt" height="260.000000pt" viewBox="0 0 260.000000 260.000000"
 preserveAspectRatio="xMidYMid meet">
<metadata>
Created by potrace 1.11, written by Peter Selinger 2001-2013
</metadata>
<g transform="translate(0.000000,260.000000) scale(0.100000,-0.100000)"
fill="#000000" stroke="none">
<path d="M1165 2591 c-10 -9 -285 -171 -291 -171 -1 0 -49 -28 -106 -63 -57
-35 -128 -76 -158 -93 -30 -16 -56 -32 -58 -36 -2 -5 -8 -8 -14 -8 -5 0 -51
-24 -101 -54 -51 -29 -119 -68 -152 -86 -33 -18 -68 -38 -78 -44 -16 -10 -17
-47 -15 -596 l3 -584 55 -33 c30 -18 62 -36 70 -39 8 -4 60 -35 115 -68 55
-34 112 -67 127 -75 28 -14 42 -43 27 -58 -6 -6 -4 -10 5 -10 8 0 13 4 10 8
-2 4 2 10 8 12 10 4 10 6 1 6 -7 1 -13 6 -13 11 0 6 8 5 19 -2 11 -7 17 -16
14 -21 -3 -4 1 -7 8 -5 16 3 79 -32 79 -45 0 -4 5 -5 12 -1 6 4 17 -1 24 -10
7 -10 16 -18 21 -19 4 -1 7 -6 5 -10 -1 -5 2 -6 8 -2 6 4 21 0 33 -8 12 -8 26
-14 31 -15 5 0 12 -4 15 -9 3 -4 26 -19 51 -32 54 -30 71 -46 62 -57 -4 -5 1
-3 10 4 14 11 19 10 33 -12 10 -14 22 -26 29 -26 6 0 4 5 -4 10 -13 8 -12 10
3 10 10 0 17 -8 17 -19 0 -11 4 -23 10 -26 6 -3 7 1 4 10 -6 14 -3 14 20 4 14
-7 26 -16 26 -21 0 -5 5 -6 10 -3 6 3 10 3 10 -2 0 -4 12 -13 26 -20 21 -10
31 -9 62 9 20 11 43 25 49 30 7 6 19 8 27 5 10 -4 13 -1 9 9 -3 7 0 14 5 14 6
0 52 25 101 55 50 30 107 63 126 72 19 9 35 20 35 25 0 4 5 8 10 8 6 0 84 42
173 93 89 52 173 100 187 108 14 8 27 16 30 19 7 7 96 57 150 83 60 30 83 53
75 78 -4 11 -2 19 6 19 8 0 8 5 -2 17 -10 11 -10 14 -1 9 6 -4 12 -2 12 3 0 6
-4 11 -10 11 -5 0 -10 5 -10 11 0 5 5 7 12 3 7 -4 8 -3 4 5 -14 21 -17 61 -5
61 8 0 7 6 -2 17 -10 11 -10 14 -1 9 6 -4 12 -2 12 3 0 6 -4 11 -10 11 -5 0
-10 5 -10 11 0 5 5 7 12 3 7 -4 8 -3 4 5 -14 21 -17 61 -5 61 8 0 7 6 -2 17
-10 11 -10 14 -1 9 6 -4 12 -2 12 3 0 6 -4 11 -10 11 -5 0 -10 5 -10 11 0 5 5
7 12 3 7 -4 8 -3 4 5 -14 21 -17 61 -5 61 8 0 7 6 -2 17 -10 11 -10 14 -1 9 6
-4 12 -2 12 3 0 6 -4 11 -8 11 -4 0 -7 17 -6 38 0 20 -3 43 -9 50 -5 7 -5 12
0 12 5 0 6 26 3 60 -3 33 -3 60 0 60 4 0 4 23 0 50 -5 37 -3 50 6 50 7 0 16 4
19 10 4 6 -1 7 -11 3 -14 -5 -16 -2 -12 20 3 16 1 27 -6 27 -6 1 0 7 14 16 20
12 21 14 4 9 -19 -5 -20 -2 -14 45 4 33 3 50 -4 50 -6 0 3 9 19 20 17 11 25
20 18 20 -6 0 -15 -4 -18 -10 -3 -5 -11 -10 -16 -10 -6 0 -7 5 -4 11 4 5 8 46
9 90 2 94 16 78 -169 186 -66 38 -214 125 -330 193 -115 67 -244 142 -285 165
-41 23 -97 55 -125 70 -104 59 -121 65 -140 46z m67 -361 c14 -10 28 -16 32
-13 3 3 6 2 6 -4 0 -5 18 -18 40 -28 22 -10 37 -22 34 -26 -3 -5 2 -9 11 -9 9
0 30 -7 46 -16 22 -11 29 -20 24 -32 -5 -13 -4 -14 6 -5 9 9 18 9 40 -3 16 -8
29 -19 29 -24 0 -6 6 -9 13 -7 6 1 11 -4 9 -11 -1 -8 2 -11 9 -7 13 9 60 -15
53 -26 -3 -5 1 -6 9 -3 17 6 41 -21 32 -36 -4 -7 1 -6 13 1 24 15 44 3 22 -12
-12 -9 -12 -10 3 -5 22 7 80 -21 72 -35 -4 -5 -3 -9 2 -8 14 4 63 -13 63 -21
0 -4 9 -10 21 -13 12 -3 18 -10 15 -15 -3 -6 2 -9 11 -8 25 4 48 -23 50 -58 7
-128 5 -768 -2 -775 -6 -6 -41 -27 -80 -49 -38 -21 -122 -69 -185 -107 -63
-37 -144 -83 -180 -103 -36 -19 -67 -38 -70 -41 -3 -3 -30 -19 -60 -36 -30
-16 -72 -38 -92 -50 -33 -18 -40 -18 -60 -6 -24 15 -336 198 -379 222 -13 8
-26 17 -29 20 -3 3 -36 23 -75 44 -38 21 -76 45 -83 52 -7 7 -20 13 -27 13 -8
0 -20 8 -27 18 -7 9 -19 17 -25 18 -29 2 -33 5 -30 17 1 6 7 15 12 19 7 5 7 8
0 8 -6 0 -11 14 -11 30 -1 17 2 30 7 30 5 0 9 5 9 11 0 5 -4 8 -9 5 -5 -3 -8
6 -8 19 0 14 5 25 11 25 8 0 8 2 0 8 -12 8 -13 61 -1 80 5 6 5 12 0 12 -4 0
-9 32 -9 70 -1 64 0 69 15 57 27 -23 38 -27 38 -13 0 8 -7 12 -15 8 -11 -4
-13 -1 -7 8 5 8 4 11 -3 6 -6 -3 -14 -1 -18 6 -11 17 -13 98 -3 98 5 0 9 5 9
11 0 5 -4 8 -9 4 -12 -7 -9 45 3 64 6 8 5 12 0 8 -5 -3 -9 44 -9 111 l0 116
125 73 c69 40 172 100 230 134 58 34 134 77 170 97 36 19 67 38 70 41 5 6 101
58 111 60 4 0 18 -8 31 -19z"/>
<path d="M1280 2171 c0 -6 4 -13 10 -16 6 -3 7 1 4 9 -7 18 -14 21 -14 7z"/>
<path d="M1242 2138 c-15 -15 -15 -28 0 -28 6 0 8 3 5 7 -4 3 -2 12 4 20 14
16 7 17 -9 1z"/>
<path d="M1307 2108 c-5 -21 -5 -21 7 -6 7 10 17 14 21 10 5 -4 5 -1 1 6 -11
19 -23 14 -29 -10z"/>
<path d="M1359 2113 c-13 -17 -13 -17 6 -3 11 8 22 16 24 17 2 2 0 3 -6 3 -6
0 -17 -8 -24 -17z"/>
<path d="M1205 2090 c-16 -7 -17 -9 -3 -9 9 -1 20 4 23 9 7 11 7 11 -20 0z"/>
<path d="M1376 2086 c3 -7 11 -13 19 -13 22 0 18 14 -4 20 -13 3 -18 0 -15 -7z"/>
<path d="M1119 2088 c-6 -21 -5 -38 1 -38 5 0 8 9 7 20 -1 17 -5 26 -8 18z"/>
<path d="M1253 2077 c-4 -6 -1 -7 7 -2 10 6 12 4 6 -10 -5 -15 -4 -16 9 -5 8
7 15 16 15 20 0 10 -30 8 -37 -3z"/>
<path d="M1450 2082 c0 -4 10 -9 22 -9 18 -2 20 0 8 7 -18 12 -30 13 -30 2z"/>
<path d="M1316 2061 c-3 -5 0 -14 8 -20 10 -9 15 -8 19 3 4 11 1 13 -10 9 -11
-4 -14 -2 -9 5 4 7 5 12 2 12 -3 0 -7 -4 -10 -9z"/>
<path d="M1427 2053 c5 -12 3 -14 -8 -8 -8 5 -11 4 -6 0 4 -5 13 -10 21 -11
16 -2 17 24 0 30 -9 3 -11 -1 -7 -11z"/>
<path d="M1239 2058 c-5 -18 -6 -38 -1 -34 7 8 12 36 6 36 -2 0 -4 -1 -5 -2z"/>
<path d="M986 2042 c-2 -4 4 -8 14 -8 10 0 16 4 14 8 -3 4 -9 8 -14 8 -5 0
-11 -4 -14 -8z"/>
<path d="M1394 2027 c1 -8 7 -21 14 -29 6 -8 8 -19 4 -23 -4 -5 -1 -5 6 -1 11
7 10 11 -2 24 -8 10 -15 21 -14 25 0 5 -3 11 -5 14 -3 3 -5 -2 -3 -10z"/>
<path d="M1275 2020 c-3 -5 -3 -10 1 -10 4 0 -1 -7 -12 -16 -18 -15 -18 -15 0
-6 11 5 21 17 22 26 3 18 -2 21 -11 6z"/>
<path d="M1505 2020 c-3 -6 1 -7 9 -4 18 7 21 14 7 14 -6 0 -13 -4 -16 -10z"/>
<path d="M955 2011 c-3 -5 -2 -12 3 -15 5 -3 9 1 9 9 0 17 -3 19 -12 6z"/>
<path d="M1333 2005 c0 -8 7 -11 16 -7 13 5 14 3 4 -9 -10 -13 -10 -16 2 -16
8 0 13 3 10 5 -3 3 1 12 7 21 7 9 9 13 4 9 -5 -4 -16 -3 -26 2 -12 6 -17 5
-17 -5z"/>
<path d="M1529 2003 c-13 -16 -12 -17 4 -4 9 7 17 15 17 17 0 8 -8 3 -21 -13z"/>
<path d="M1122 1998 c-15 -15 -15 -28 0 -28 6 0 8 3 5 7 -4 3 -2 12 4 20 14
16 7 17 -9 1z"/>
<path d="M1206 1998 c3 -5 10 -6 15 -3 13 9 11 12 -6 12 -8 0 -12 -4 -9 -9z"/>
<path d="M1575 1989 c-4 -6 -5 -12 -2 -15 2 -3 7 2 10 11 7 17 1 20 -8 4z"/>
<path d="M940 1986 c0 -2 8 -10 18 -17 15 -13 16 -12 3 4 -13 16 -21 21 -21
13z"/>
<path d="M1181 1954 c0 -11 3 -14 6 -6 3 7 2 16 -1 19 -3 4 -6 -2 -5 -13z"/>
<path d="M1230 1959 c0 -5 5 -7 10 -4 6 3 10 8 10 11 0 2 -4 4 -10 4 -5 0 -10
-5 -10 -11z"/>
<path d="M1668 1943 c7 -3 16 -2 19 1 4 3 -2 6 -13 5 -11 0 -14 -3 -6 -6z"/>
<path d="M1696 1935 c-9 -26 -7 -32 5 -12 6 10 9 21 6 23 -2 3 -7 -2 -11 -11z"/>
<path d="M931 1931 c-8 -5 -9 -11 -3 -15 5 -3 12 1 16 9 6 17 6 18 -13 6z"/>
<path d="M1187 1919 c7 -9 11 -18 8 -21 -3 -3 3 -11 12 -19 16 -12 17 -12 6 2
-7 9 -11 18 -8 21 3 3 -3 11 -12 19 -16 12 -17 12 -6 -2z"/>
<path d="M878 1903 c7 -3 16 -2 19 1 4 3 -2 6 -13 5 -11 0 -14 -3 -6 -6z"/>
<path d="M1230 1896 c7 -7 13 -7 20 0 6 6 3 10 -10 10 -13 0 -16 -4 -10 -10z"/>
<path d="M1740 1906 c0 -2 8 -10 18 -17 15 -13 16 -12 3 4 -13 16 -21 21 -21
13z"/>
<path d="M1038 1893 c7 -3 16 -2 19 1 4 3 -2 6 -13 5 -11 0 -14 -3 -6 -6z"/>
<path d="M1784 1877 c0 -13 6 -24 13 -24 9 0 9 6 1 21 -15 30 -16 30 -14 3z"/>
<path d="M773 1875 c0 -7 6 -11 14 -8 7 3 13 6 13 8 0 2 -6 5 -13 8 -8 3 -14
-1 -14 -8z"/>
<path d="M810 1878 c0 -11 12 -10 30 2 12 7 10 9 -8 7 -12 0 -22 -5 -22 -9z"/>
<path d="M945 1879 c-3 -4 2 -6 10 -5 21 3 28 13 10 13 -9 0 -18 -4 -20 -8z"/>
<path d="M1154 1859 c-2 -33 4 -33 11 -1 2 12 1 24 -3 26 -4 2 -8 -9 -8 -25z"/>
<path d="M716 1862 c-3 -5 1 -9 9 -9 8 0 12 4 9 9 -3 4 -7 8 -9 8 -2 0 -6 -4
-9 -8z"/>
<path d="M1110 1860 c13 -8 8 -14 -11 -12 -3 1 -6 -6 -6 -14 0 -10 7 -9 24 8
13 12 23 22 23 23 0 0 -10 2 -22 2 -18 2 -20 0 -8 -7z"/>
<path d="M653 1835 c0 -8 4 -12 9 -9 5 3 6 10 3 15 -9 13 -12 11 -12 -6z"/>
<path d="M977 1836 c-4 -10 1 -12 14 -9 23 6 24 9 5 16 -8 3 -17 0 -19 -7z"/>
<path d="M1830 1846 c0 -2 7 -7 16 -10 8 -3 12 -2 9 4 -6 10 -25 14 -25 6z"/>
<path d="M950 1821 c0 -6 4 -13 10 -16 6 -3 7 1 4 9 -7 18 -14 21 -14 7z"/>
<path d="M1860 1820 c-8 -5 -10 -10 -5 -10 6 0 17 5 25 10 8 5 11 10 5 10 -5
0 -17 -5 -25 -10z"/>
<path d="M719 1818 c-5 -18 -6 -38 -1 -34 7 8 12 36 6 36 -2 0 -4 -1 -5 -2z"/>
<path d="M1034 1812 c4 -7 2 -21 -5 -30 -12 -15 -11 -15 6 0 16 15 17 20 6 30
-11 11 -13 10 -7 0z"/>
<path d="M636 1799 c4 -8 30 -6 38 2 3 3 -5 5 -19 5 -13 0 -22 -3 -19 -7z"/>
<path d="M770 1806 c0 -2 7 -7 16 -10 8 -3 12 -2 9 4 -6 10 -25 14 -25 6z"/>
<path d="M914 1795 c1 -8 6 -18 11 -22 4 -5 5 -2 0 6 -6 11 -4 13 8 8 23 -9
21 0 -2 13 -15 7 -19 7 -17 -5z"/>
<path d="M1060 1806 c0 -2 8 -10 18 -17 15 -13 16 -12 3 4 -13 16 -21 21 -21
13z"/>
<path d="M586 1778 c3 -5 10 -6 15 -3 13 9 11 12 -6 12 -8 0 -12 -4 -9 -9z"/>
<path d="M676 1782 c-2 -4 0 -14 6 -22 8 -12 9 -12 5 2 -3 9 -1 19 6 22 9 3 9
5 0 5 -6 1 -14 -3 -17 -7z"/>
<path d="M765 1782 c-13 -9 -17 -32 -6 -32 5 0 11 9 14 20 6 22 6 22 -8 12z"/>
<path d="M855 1771 c14 -14 67 -23 59 -10 -3 6 -8 8 -11 5 -3 -2 -17 0 -32 5
-17 7 -23 7 -16 0z"/>
<path d="M510 1760 c0 -5 5 -10 11 -10 5 0 7 5 4 10 -3 6 -8 10 -11 10 -2 0
-4 -4 -4 -10z"/>
<path d="M613 1756 c0 -8 7 -12 15 -8 10 3 13 1 8 -6 -3 -6 -2 -13 3 -16 5 -4
8 1 7 10 -3 21 -33 39 -33 20z"/>
<path d="M950 1761 c0 -6 4 -12 8 -15 5 -3 9 1 9 9 0 8 -4 15 -9 15 -4 0 -8
-4 -8 -9z"/>
<path d="M551 1747 c-8 -10 -7 -14 2 -14 8 0 14 6 14 14 0 7 -1 13 -2 13 -2 0
-8 -6 -14 -13z"/>
<path d="M795 1751 c-6 -11 13 -26 22 -17 4 3 1 6 -6 6 -7 0 -9 5 -6 10 3 6 4
10 1 10 -3 0 -7 -4 -11 -9z"/>
<path d="M730 1730 c-8 -5 -12 -12 -9 -15 4 -3 12 1 19 10 14 17 11 19 -10 5z"/>
<path d="M837 1730 c7 -8 23 -15 35 -17 12 -2 19 -1 16 3 -3 3 -12 6 -20 8 -7
1 -20 5 -28 10 -12 7 -13 6 -3 -4z"/>
<path d="M576 1714 c-3 -9 1 -11 11 -7 12 5 14 3 8 -8 -5 -8 -4 -11 0 -6 5 4
10 13 11 21 2 16 -24 17 -30 0z"/>
<path d="M774 1718 c-5 -7 -3 -8 6 -3 10 6 12 4 7 -8 -4 -11 -2 -14 9 -10 11
4 12 9 3 19 -14 17 -16 17 -25 2z"/>
<path d="M520 1716 c0 -2 7 -7 16 -10 8 -3 12 -2 9 4 -6 10 -25 14 -25 6z"/>
<path d="M828 1703 c6 -2 9 -10 6 -15 -4 -7 -2 -8 5 -4 13 9 5 26 -12 25 -9 0
-8 -2 1 -6z"/>
<path d="M734 1679 c0 -12 4 -15 12 -9 6 6 14 7 17 3 4 -3 7 -2 7 4 0 6 -8 13
-18 15 -12 4 -18 -1 -18 -13z"/>
<path d="M550 1680 c0 -5 5 -10 10 -10 6 0 10 5 10 10 0 6 -4 10 -10 10 -5 0
-10 -4 -10 -10z"/>
<path d="M630 1681 c0 -10 19 -25 25 -20 1 2 -3 10 -11 17 -8 7 -14 8 -14 3z"/>
<path d="M857 1675 c-4 -8 -3 -16 1 -19 4 -3 9 4 9 15 2 23 -3 25 -10 4z"/>
<path d="M598 1651 c5 -14 4 -14 -14 -1 -18 14 -18 14 -5 -2 17 -23 27 -23 33
0 3 11 0 19 -7 19 -8 0 -11 -7 -7 -16z"/>
<path d="M713 1651 c0 -11 5 -18 9 -15 4 3 5 11 1 19 -7 21 -12 19 -10 -4z"/>
<path d="M794 1653 c16 -20 36 -23 36 -6 0 4 -3 3 -7 0 -3 -4 -16 1 -27 10
-21 18 -21 18 -2 -4z"/>
<path d="M520 1629 c13 -23 22 -25 13 -2 -5 12 -3 14 8 8 8 -5 11 -4 6 0 -4 5
-14 10 -22 11 -12 2 -12 -2 -5 -17z"/>
<path d="M613 1605 c0 -7 7 -11 14 -8 8 3 13 0 11 -7 -2 -7 3 -14 10 -15 7 -2
8 -1 2 2 -5 2 -8 9 -5 13 3 5 -3 13 -13 19 -14 7 -19 6 -19 -4z"/>
<path d="M564 1599 c-3 -6 -1 -16 5 -22 9 -9 10 -7 5 7 -6 15 -4 17 6 11 9 -5
11 -4 6 3 -9 15 -13 15 -22 1z"/>
<path d="M725 1599 c-3 -4 2 -6 10 -5 21 3 28 13 10 13 -9 0 -18 -4 -20 -8z"/>
<path d="M585 1560 c-3 -6 1 -7 9 -4 18 7 21 14 7 14 -6 0 -13 -4 -16 -10z"/>
<path d="M627 1559 c7 -7 15 -10 18 -7 3 3 -2 9 -12 12 -14 6 -15 5 -6 -5z"/>
<path d="M690 1558 c0 -6 3 -8 7 -5 3 4 11 2 18 -3 8 -7 12 -6 12 3 0 7 -9 14
-19 14 -10 1 -18 -3 -18 -9z"/>
<path d="M603 1542 c-7 -4 -9 -13 -4 -21 6 -9 10 -7 14 8 3 12 4 21 4 21 -1 0
-7 -4 -14 -8z"/>
<path d="M670 1526 c5 -13 6 -27 3 -30 -4 -3 -2 -6 4 -6 15 0 11 49 -4 54 -9
4 -10 -1 -3 -18z"/>
<path d="M515 1509 c-4 -6 -5 -12 -2 -15 2 -3 7 2 10 11 7 17 1 20 -8 4z"/>
<path d="M559 1508 c0 -2 -2 -13 -3 -26 -3 -21 -2 -21 16 -5 22 20 23 24 1 16
-11 -4 -14 -3 -9 5 4 7 5 12 2 12 -3 0 -6 -1 -7 -2z"/>
<path d="M613 1477 c-4 -6 -1 -7 7 -2 9 6 12 4 8 -6 -4 -10 1 -15 12 -15 11 0
16 5 12 15 -4 10 -1 12 9 6 8 -4 11 -4 6 0 -11 12 -47 13 -54 2z"/>
<path d="M574 1441 c0 -12 6 -17 18 -13 10 2 18 9 18 15 0 6 -3 7 -7 4 -3 -4
-11 -3 -17 3 -8 6 -12 3 -12 -9z"/>
<path d="M628 1412 c4 -11 1 -13 -8 -7 -9 5 -11 4 -6 -3 10 -16 14 -15 25 6 7
14 6 19 -4 19 -7 0 -11 -7 -7 -15z"/>
<path d="M660 1426 c0 -2 9 -6 20 -9 11 -3 18 -1 14 4 -5 9 -34 13 -34 5z"/>
<path d="M560 1401 c0 -5 7 -12 16 -15 14 -5 15 -4 4 9 -14 17 -20 19 -20 6z"/>
<path d="M673 1392 c2 -12 6 -24 10 -28 3 -4 4 4 2 16 -6 30 -16 40 -12 12z"/>
<path d="M514 1353 c2 -9 8 -18 15 -19 6 -1 7 0 2 2 -6 3 -7 12 -4 20 3 8 1
14 -5 14 -6 0 -9 -8 -8 -17z"/>
<path d="M597 1356 c-3 -8 0 -17 7 -19 10 -4 12 1 9 14 -6 23 -9 24 -16 5z"/>
<path d="M635 1331 c-3 -5 0 -13 6 -17 7 -4 9 -3 5 4 -3 5 0 13 6 15 9 4 10 6
1 6 -6 1 -14 -3 -18 -8z"/>
<path d="M587 1319 c7 -7 15 -10 18 -7 3 3 -2 9 -12 12 -14 6 -15 5 -6 -5z"/>
<path d="M560 1300 c-9 -6 -10 -10 -3 -10 6 0 15 5 18 10 8 12 4 12 -15 0z"/>
<path d="M626 1296 c6 -15 4 -17 -6 -11 -9 6 -11 4 -5 -4 5 -9 10 -10 18 -2 8
8 7 14 -2 24 -10 10 -11 8 -5 -7z"/>
<path d="M670 1294 c6 -6 7 -14 3 -17 -3 -4 -3 -7 0 -7 3 0 11 8 16 18 7 14 6
18 -9 18 -13 0 -16 -4 -10 -12z"/>
<path d="M533 1275 c0 -5 12 -10 27 -10 15 0 27 5 27 10 0 6 -12 10 -27 10
-15 0 -27 -4 -27 -10z"/>
<path d="M699 1273 c-12 -16 -12 -17 2 -6 9 7 20 9 24 5 5 -4 5 -1 1 6 -9 16
-11 15 -27 -5z"/>
<path d="M650 1250 c-9 -6 -10 -10 -3 -10 6 0 15 5 18 10 8 12 4 12 -15 0z"/>
<path d="M506 1238 c3 -5 10 -6 15 -3 13 9 11 12 -6 12 -8 0 -12 -4 -9 -9z"/>
<path d="M584 1238 c-4 -7 -4 -10 1 -6 4 4 14 0 21 -10 12 -15 12 -15 7 6 -6
24 -18 29 -29 10z"/>
<path d="M713 1225 c0 -8 4 -12 9 -9 5 3 6 10 3 15 -9 13 -12 11 -12 -6z"/>
<path d="M550 1221 c0 -5 8 -15 18 -22 15 -12 16 -12 5 2 -7 9 -10 19 -6 22 3
4 1 7 -5 7 -7 0 -12 -4 -12 -9z"/>
<path d="M630 1201 c0 -6 4 -13 10 -16 6 -3 7 1 4 9 -7 18 -14 21 -14 7z"/>
<path d="M595 1180 c6 -10 4 -12 -11 -6 -15 6 -17 5 -6 -5 9 -9 15 -10 23 -2
8 8 7 13 -2 18 -8 6 -10 4 -4 -5z"/>
<path d="M669 1169 c5 -15 7 -29 5 -32 -3 -3 -1 -8 5 -11 13 -8 4 45 -10 59
-7 7 -7 1 0 -16z"/>
<path d="M735 1161 c-3 -5 -2 -12 3 -15 5 -3 9 1 9 9 0 17 -3 19 -12 6z"/>
<path d="M640 1109 c13 -23 22 -25 13 -2 -5 12 -3 14 8 8 8 -5 11 -4 6 0 -4 5
-14 10 -22 11 -12 2 -12 -2 -5 -17z"/>
<path d="M515 1109 c-4 -6 -5 -12 -2 -15 2 -3 7 2 10 11 7 17 1 20 -8 4z"/>
<path d="M558 1093 c7 -3 16 -2 19 1 4 3 -2 6 -13 5 -11 0 -14 -3 -6 -6z"/>
<path d="M670 1080 c0 -5 5 -10 10 -10 6 0 10 5 10 10 0 6 -4 10 -10 10 -5 0
-10 -4 -10 -10z"/>
<path d="M641 1048 c9 -16 29 -17 29 -2 0 3 -5 2 -12 -2 -7 -5 -9 -2 -6 8 4 8
0 15 -7 15 -10 0 -11 -5 -4 -19z"/>
<path d="M685 1040 c-10 -11 -15 -20 -12 -20 4 0 2 -12 -4 -27 -7 -19 -7 -25
0 -18 6 6 12 20 14 32 1 11 9 28 16 37 19 23 7 20 -14 -4z"/>
<path d="M716 1033 c-6 -14 -5 -15 5 -6 7 7 10 15 7 18 -3 3 -9 -2 -12 -12z"/>
<path d="M695 1001 c-3 -5 -2 -12 3 -15 5 -3 9 1 9 9 0 17 -3 19 -12 6z"/>
<path d="M636 965 c10 -8 23 -15 28 -15 6 0 1 7 -10 15 -10 8 -23 15 -28 15
-6 0 -1 -7 10 -15z"/>
<path d="M2275 1849 c-4 -6 -5 -12 -2 -15 2 -3 7 2 10 11 7 17 1 20 -8 4z"/>
<path d="M2236 1822 c-3 -5 1 -9 9 -9 8 0 12 4 9 9 -3 4 -7 8 -9 8 -2 0 -6 -4
-9 -8z"/>
<path d="M2274 1809 c-3 -6 -2 -15 3 -20 5 -5 9 -1 9 11 0 23 -2 24 -12 9z"/>
<path d="M2313 1771 c10 -12 9 -14 -4 -9 -9 4 -16 1 -16 -7 0 -10 5 -11 17 -5
10 5 21 6 26 2 5 -4 3 0 -4 9 -6 9 -10 18 -7 21 3 2 -2 5 -10 5 -12 0 -12 -3
-2 -16z"/>
<path d="M2235 1771 c-3 -6 5 -15 17 -21 21 -10 21 -10 6 3 -10 8 -15 17 -11
20 3 4 4 7 0 7 -3 0 -8 -4 -12 -9z"/>
<path d="M2363 1758 c-11 -19 -13 -39 -1 -32 5 3 7 9 4 12 -3 3 -1 11 5 19 6
7 9 13 6 13 -3 0 -9 -6 -14 -12z"/>
<path d="M2395 1751 c-3 -5 -2 -12 3 -15 5 -3 9 1 9 9 0 17 -3 19 -12 6z"/>
<path d="M2227 1739 c7 -7 15 -10 18 -7 3 3 -2 9 -12 12 -14 6 -15 5 -6 -5z"/>
<path d="M2274 1714 c1 -8 6 -17 11 -21 4 -5 5 -2 0 6 -6 11 -4 13 8 8 10 -4
14 -2 11 7 -6 17 -32 16 -30 0z"/>
<path d="M2376 1722 c-3 -5 1 -9 9 -9 8 0 12 4 9 9 -3 4 -7 8 -9 8 -2 0 -6 -4
-9 -8z"/>
<path d="M2395 1700 c-16 -7 -17 -9 -3 -9 9 -1 20 4 23 9 7 11 7 11 -20 0z"/>
<path d="M2236 1687 c3 -10 9 -15 12 -12 3 3 0 11 -7 18 -10 9 -11 8 -5 -6z"/>
<path d="M2315 1689 c-4 -6 -5 -12 -2 -15 2 -3 7 2 10 11 7 17 1 20 -8 4z"/>
<path d="M2334 1679 c-3 -6 -3 -13 0 -16 3 -4 6 -1 6 5 0 6 7 9 15 6 8 -4 15
-4 15 -1 0 11 -30 16 -36 6z"/>
<path d="M2269 1657 c6 -6 7 -17 1 -27 -6 -12 -5 -17 5 -17 7 0 11 7 7 15 -3
9 -1 13 5 9 6 -4 13 0 16 8 4 10 1 12 -10 8 -10 -4 -14 -2 -10 4 3 5 -1 10 -9
10 -10 0 -11 -4 -5 -10z"/>
<path d="M2397 1645 c2 -7 10 -12 17 -12 7 0 13 5 13 12 0 6 -8 11 -18 11 -9
0 -15 -5 -12 -11z"/>
<path d="M2410 1610 c-9 -6 -10 -10 -3 -10 6 0 15 5 18 10 8 12 4 12 -15 0z"/>
<path d="M2231 1587 c-13 -21 -12 -21 5 -5 10 10 16 20 13 22 -3 3 -11 -5 -18
-17z"/>
<path d="M2310 1605 c0 -5 5 -17 10 -25 5 -8 10 -10 10 -5 0 6 -5 17 -10 25
-5 8 -10 11 -10 5z"/>
<path d="M2276 1582 c-2 -4 -1 -14 3 -20 6 -10 11 -9 21 3 11 13 10 14 -5 9
-13 -5 -16 -4 -11 4 4 7 5 12 2 12 -3 0 -7 -4 -10 -8z"/>
<path d="M2380 1586 c0 -2 9 -6 20 -9 11 -3 18 -1 14 4 -5 9 -34 13 -34 5z"/>
<path d="M2234 1543 c3 -20 21 -28 31 -14 4 7 0 8 -11 4 -11 -4 -15 -3 -10 5
3 6 2 13 -3 16 -5 4 -8 -2 -7 -11z"/>
<path d="M2440 1520 c-8 -5 -10 -10 -5 -10 6 0 17 5 25 10 8 5 11 10 5 10 -5
0 -17 -5 -25 -10z"/>
<path d="M2394 1511 c4 -5 0 -11 -6 -14 -7 -3 -3 -4 9 -4 17 1 19 4 11 14 -12
15 -22 18 -14 4z"/>
<path d="M2231 1488 c9 -16 29 -17 29 -2 0 3 -5 2 -12 -2 -7 -5 -9 -2 -6 8 4
8 0 15 -7 15 -10 0 -11 -5 -4 -19z"/>
<path d="M2267 1449 c6 -23 9 -24 16 -5 3 8 0 17 -7 19 -10 4 -12 -1 -9 -14z"/>
<path d="M2409 1444 c-17 -21 -20 -42 -7 -51 6 -3 8 -1 4 5 -3 5 0 13 6 15 10
4 9 6 -1 6 -11 1 -10 6 4 21 10 11 16 20 13 20 -3 0 -12 -7 -19 -16z"/>
<path d="M2439 1433 c-13 -16 -12 -17 4 -4 9 7 17 15 17 17 0 8 -8 3 -21 -13z"/>
<path d="M2290 1416 c0 -2 7 -9 15 -16 9 -7 15 -8 15 -2 0 5 -7 12 -15 16 -8
3 -15 4 -15 2z"/>
<path d="M2241 1396 c-9 -10 -8 -15 3 -19 11 -4 13 -1 9 10 -5 12 -3 14 7 8 9
-5 11 -4 6 3 -9 15 -11 15 -25 -2z"/>
<path d="M2295 1370 c-4 -6 -11 -8 -16 -5 -5 4 -9 2 -9 -3 0 -5 8 -12 18 -14
12 -4 18 1 18 13 0 22 -2 23 -11 9z"/>
<path d="M2440 1360 c-8 -5 -10 -10 -5 -10 6 0 17 5 25 10 8 5 11 10 5 10 -5
0 -17 -5 -25 -10z"/>
<path d="M2245 1339 c-8 -12 0 -22 20 -25 8 -1 13 2 9 7 -3 5 -10 6 -16 3 -7
-5 -9 -1 -5 9 7 19 2 23 -8 6z"/>
<path d="M2319 1343 c0 -5 -2 -16 -4 -26 -2 -11 -1 -16 3 -13 8 8 14 46 7 46
-3 0 -5 -3 -6 -7z"/>
<path d="M2390 1346 c0 -2 7 -7 16 -10 8 -3 12 -2 9 4 -6 10 -25 14 -25 6z"/>
<path d="M2396 1312 c-2 -4 4 -8 14 -8 10 0 16 4 14 8 -3 4 -9 8 -14 8 -5 0
-11 -4 -14 -8z"/>
<path d="M2337 1284 c2 -7 11 -10 19 -7 19 7 18 10 -5 16 -13 3 -18 1 -14 -9z"/>
<path d="M2380 1266 c0 -2 9 -6 20 -9 11 -3 18 -1 14 4 -5 9 -34 13 -34 5z"/>
<path d="M2230 1241 c0 -6 4 -13 10 -16 6 -3 7 1 4 9 -7 18 -14 21 -14 7z"/>
<path d="M2374 1242 c4 -3 14 -7 22 -8 9 -1 13 0 10 4 -4 3 -14 7 -22 8 -9 1
-13 0 -10 -4z"/>
<path d="M2440 1200 c-8 -5 -10 -10 -5 -10 6 0 17 5 25 10 8 5 11 10 5 10 -5
0 -17 -5 -25 -10z"/>
<path d="M2396 1182 c-3 -5 1 -9 9 -9 8 0 12 4 9 9 -3 4 -7 8 -9 8 -2 0 -6 -4
-9 -8z"/>
<path d="M2406 1125 c-11 -8 -15 -15 -9 -15 6 0 16 7 23 15 16 19 11 19 -14 0z"/>
<path d="M2398 1093 c7 -3 16 -2 19 1 4 3 -2 6 -13 5 -11 0 -14 -3 -6 -6z"/>
<path d="M2420 1066 c0 -2 8 -10 18 -17 15 -13 16 -12 3 4 -13 16 -21 21 -21
13z"/>
<path d="M2282 1041 c-11 -6 -9 -9 6 -13 15 -4 19 -2 15 8 -6 16 -4 16 -21 5z"/>
<path d="M2363 1015 c-3 -9 -3 -18 -1 -21 3 -3 8 4 11 16 6 23 -1 27 -10 5z"/>
<path d="M2234 1009 c-3 -6 1 -18 11 -27 16 -16 17 -16 7 4 -6 12 -8 24 -5 28
3 3 4 6 0 6 -3 0 -9 -5 -13 -11z"/>
<path d="M2307 999 c7 -9 10 -19 6 -22 -3 -4 -1 -7 5 -7 17 0 15 16 -5 31 -16
12 -17 12 -6 -2z"/>
<path d="M2395 980 c-16 -7 -17 -9 -3 -9 9 -1 20 4 23 9 7 11 7 11 -20 0z"/>
<path d="M2270 959 c0 -3 9 -9 19 -12 13 -3 18 0 15 7 -5 13 -34 18 -34 5z"/>
<path d="M2455 961 c-3 -5 -2 -12 3 -15 5 -3 9 1 9 9 0 17 -3 19 -12 6z"/>
<path d="M2244 939 c-3 -6 0 -17 8 -25 13 -13 15 -13 15 0 0 8 -5 12 -10 9 -6
-4 -8 0 -4 10 7 19 2 23 -9 6z"/>
<path d="M2300 915 c-11 -13 -10 -14 4 -9 9 3 16 10 16 15 0 13 -6 11 -20 -6z"/>
<path d="M2399 928 c-5 -18 -6 -38 -1 -34 7 8 12 36 6 36 -2 0 -4 -1 -5 -2z"/>
<path d="M2420 906 c0 -2 8 -10 18 -17 15 -13 16 -12 3 4 -13 16 -21 21 -21
13z"/>
<path d="M2267 871 c-3 -13 0 -18 7 -15 7 3 13 11 13 19 0 22 -14 18 -20 -4z"/>
<path d="M2347 871 c-3 -13 -1 -18 9 -14 7 2 10 11 7 19 -7 19 -10 18 -16 -5z"/>
<path d="M2315 850 c-4 -6 -11 -8 -16 -5 -5 4 -9 1 -9 -4 0 -16 16 -13 30 4 7
8 10 15 7 15 -3 0 -9 -5 -12 -10z"/>
<path d="M2370 838 c0 -4 4 -8 9 -8 6 0 12 4 15 8 3 5 -1 9 -9 9 -8 0 -15 -4
-15 -9z"/>
<path d="M2410 807 c-20 -16 -22 -34 -5 -34 8 0 12 4 9 9 -3 5 0 15 6 23 15
18 10 19 -10 2z"/>
<path d="M2353 745 c0 -8 4 -12 9 -9 5 3 6 10 3 15 -9 13 -12 11 -12 -6z"/>
<path d="M2420 746 c0 -2 8 -10 18 -17 15 -13 16 -12 3 4 -13 16 -21 21 -21
13z"/>
<path d="M2150 737 c0 -2 6 -10 14 -16 11 -9 16 -9 22 1 4 7 4 10 -1 6 -4 -4
-14 -3 -22 3 -7 6 -13 9 -13 6z"/>
<path d="M2280 718 c-12 -8 -12 -9 2 -5 9 3 19 1 22 -6 3 -9 5 -9 5 0 1 18
-13 23 -29 11z"/>
<path d="M2236 698 c5 -7 2 -9 -8 -6 -8 4 -15 0 -15 -7 0 -10 5 -11 19 -4 16
9 17 29 2 29 -3 0 -2 -5 2 -12z"/>
<path d="M2364 695 c-4 -8 -10 -13 -14 -10 -4 3 -10 -2 -13 -10 -4 -10 -1 -12
10 -8 12 5 14 3 8 -8 -4 -8 -5 -11 -1 -7 4 3 8 10 8 15 0 4 4 16 9 26 5 9 7
17 4 17 -3 0 -8 -7 -11 -15z"/>
<path d="M2301 674 c0 -11 3 -14 6 -6 3 7 2 16 -1 19 -3 4 -6 -2 -5 -13z"/>
<path d="M2275 671 c-3 -5 -2 -12 3 -15 5 -3 9 1 9 9 0 17 -3 19 -12 6z"/>
<path d="M476 662 c-3 -5 1 -9 9 -9 8 0 12 4 9 9 -3 4 -7 8 -9 8 -2 0 -6 -4
-9 -8z"/>
<path d="M514 642 c0 -10 -5 -16 -14 -14 -8 2 -11 0 -7 -4 15 -15 33 -11 34 7
1 10 -2 21 -7 24 -4 2 -7 -3 -6 -13z"/>
<path d="M2115 650 c-3 -6 1 -7 9 -4 18 7 21 14 7 14 -6 0 -13 -4 -16 -10z"/>
<path d="M2306 638 c3 -4 9 -8 15 -8 5 0 9 4 9 8 0 5 -7 9 -15 9 -8 0 -12 -4
-9 -9z"/>
<path d="M547 627 c-3 -8 1 -14 8 -14 7 0 11 6 8 14 -3 7 -6 13 -8 13 -2 0 -5
-6 -8 -13z"/>
<path d="M2076 627 c3 -10 9 -15 12 -12 3 3 0 11 -7 18 -10 9 -11 8 -5 -6z"/>
<path d="M2155 631 c-6 -11 13 -26 22 -17 4 3 1 6 -6 6 -7 0 -9 5 -6 10 3 6 4
10 1 10 -3 0 -7 -4 -11 -9z"/>
<path d="M2034 611 c13 -12 18 -13 28 -2 11 10 9 11 -6 5 -12 -5 -17 -4 -13 3
3 5 -1 10 -9 10 -13 0 -13 -2 0 -16z"/>
<path d="M2267 613 c6 -25 18 -30 29 -10 4 6 4 9 -1 5 -4 -4 -14 0 -21 10 -12
15 -12 15 -7 -5z"/>
<path d="M2357 613 c3 -7 6 -13 8 -13 2 0 5 6 8 13 3 8 -1 14 -8 14 -7 0 -11
-6 -8 -14z"/>
<path d="M2336 607 c3 -10 9 -15 12 -12 3 3 0 11 -7 18 -10 9 -11 8 -5 -6z"/>
<path d="M2200 600 c-12 -7 -10 -9 8 -7 12 0 22 5 22 9 0 11 -12 10 -30 -2z"/>
<path d="M2404 602 c4 -3 14 -7 22 -8 9 -1 13 0 10 4 -4 3 -14 7 -22 8 -9 1
-13 0 -10 -4z"/>
<path d="M1990 596 c0 -2 7 -9 15 -16 13 -11 14 -10 9 4 -5 14 -24 23 -24 12z"/>
<path d="M2161 576 c-9 -10 -8 -15 3 -19 9 -4 18 -1 22 5 5 7 2 8 -6 3 -10 -6
-12 -4 -7 8 8 21 3 22 -12 3z"/>
<path d="M2380 586 c0 -2 8 -10 18 -17 15 -13 16 -12 3 4 -13 16 -21 21 -21
13z"/>
<path d="M2335 569 c-4 -6 -14 -8 -24 -4 -13 5 -14 4 -3 -6 10 -11 15 -10 29
4 10 9 14 17 11 17 -4 0 -10 -5 -13 -11z"/>
<path d="M510 560 c0 -5 5 -10 11 -10 5 0 7 5 4 10 -3 6 -8 10 -11 10 -2 0 -4
-4 -4 -10z"/>
<path d="M634 545 c0 -13 3 -22 7 -19 8 4 6 30 -2 38 -3 3 -5 -5 -5 -19z"/>
<path d="M1950 560 c0 -5 5 -10 11 -10 5 0 7 5 4 10 -3 6 -8 10 -11 10 -2 0
-4 -4 -4 -10z"/>
<path d="M2030 559 c0 -3 9 -9 19 -12 13 -3 18 0 15 7 -5 13 -34 18 -34 5z"/>
<path d="M2233 560 c-13 -5 -23 -12 -23 -14 0 -3 7 -2 17 1 10 4 14 2 10 -4
-3 -5 -1 -10 6 -10 7 0 13 9 13 19 0 10 0 18 -1 17 0 0 -10 -4 -22 -9z"/>
<path d="M2356 553 c-6 -14 -5 -15 5 -6 7 7 10 15 7 18 -3 3 -9 -2 -12 -12z"/>
<path d="M669 543 c-13 -16 -12 -17 4 -4 16 13 21 21 13 21 -2 0 -10 -8 -17
-17z"/>
<path d="M1873 536 c1 -5 -3 -10 -10 -11 -7 0 -18 -7 -25 -15 -11 -12 -11 -12
3 -2 9 6 18 10 21 7 3 -3 12 3 21 13 14 15 14 19 3 19 -8 0 -14 -5 -13 -11z"/>
<path d="M1995 541 c6 -11 4 -13 -10 -7 -15 5 -16 4 -5 -9 7 -8 16 -15 20 -15
10 0 7 27 -5 37 -4 5 -5 2 0 -6z"/>
<path d="M2073 523 c-3 -10 -8 -21 -10 -25 -2 -4 2 -5 9 -3 8 3 14 14 14 25 0
25 -5 25 -13 3z"/>
<path d="M2314 526 c1 -8 5 -18 8 -22 4 -3 5 1 4 10 -1 8 -5 18 -8 22 -4 3 -5
-1 -4 -10z"/>
<path d="M741 514 c0 -11 3 -14 6 -6 3 7 2 16 -1 19 -3 4 -6 -2 -5 -13z"/>
<path d="M1920 509 c13 -23 22 -25 13 -2 -5 12 -3 14 8 8 8 -5 11 -4 6 0 -4 5
-14 10 -22 11 -12 2 -12 -2 -5 -17z"/>
<path d="M2147 519 c7 -7 15 -10 18 -7 3 3 -2 9 -12 12 -14 6 -15 5 -6 -5z"/>
<path d="M2200 520 c8 -5 20 -10 25 -10 6 0 3 5 -5 10 -8 5 -19 10 -25 10 -5
0 -3 -5 5 -10z"/>
<path d="M709 503 c-13 -16 -12 -17 4 -4 16 13 21 21 13 21 -2 0 -10 -8 -17
-17z"/>
<path d="M2014 479 c0 -12 4 -15 12 -9 6 6 14 7 17 3 4 -3 7 -2 7 4 0 6 -8 13
-18 15 -12 4 -18 -1 -18 -13z"/>
<path d="M2125 491 c-11 -5 -23 -7 -27 -5 -4 3 -9 0 -13 -5 -3 -6 4 -8 16 -6
13 3 28 0 34 -5 7 -6 11 -3 11 11 0 10 0 19 -1 18 0 0 -9 -4 -20 -8z"/>
<path d="M2173 486 c0 -15 22 -15 34 0 4 5 4 6 -1 2 -5 -4 -14 -3 -21 2 -8 7
-12 5 -12 -4z"/>
<path d="M1950 479 c0 -3 9 -9 19 -12 13 -3 18 0 15 7 -5 13 -34 18 -34 5z"/>
<path d="M1786 461 c-4 -5 3 -7 14 -4 23 6 26 13 6 13 -8 0 -17 -4 -20 -9z"/>
<path d="M1918 462 c-14 -6 -13 -9 6 -24 18 -13 23 -13 23 -3 0 8 -5 11 -10 8
-6 -4 -8 0 -4 10 3 10 5 17 4 16 -1 0 -9 -3 -19 -7z"/>
<path d="M2066 456 c6 -15 4 -17 -6 -11 -9 6 -11 4 -5 -4 5 -9 10 -10 18 -2 8
8 7 14 -2 24 -10 10 -11 8 -5 -7z"/>
<path d="M2210 460 c0 -5 5 -10 11 -10 5 0 7 5 4 10 -3 6 -8 10 -11 10 -2 0
-4 -4 -4 -10z"/>
<path d="M793 445 c0 -8 4 -12 9 -9 5 3 6 10 3 15 -9 13 -12 11 -12 -6z"/>
<path d="M2173 445 c0 -8 4 -12 9 -9 5 3 6 10 3 15 -9 13 -12 11 -12 -6z"/>
<path d="M1784 435 c-18 -15 -18 -15 0 -8 15 5 17 3 11 -8 -5 -8 -4 -11 0 -6
8 7 17 37 11 37 -1 0 -11 -7 -22 -15z"/>
<path d="M1860 440 c8 -5 20 -10 25 -10 6 0 3 5 -5 10 -8 5 -19 10 -25 10 -5
0 -3 -5 5 -10z"/>
<path d="M1984 438 c-4 -7 -4 -10 1 -6 4 4 17 2 29 -4 19 -10 20 -10 7 5 -16
20 -27 21 -37 5z"/>
<path d="M1636 422 c-2 -4 -1 -14 4 -22 7 -11 9 -9 7 8 -1 24 -3 26 -11 14z"/>
<path d="M1842 418 c-7 -7 -12 -15 -12 -19 0 -9 27 -5 37 6 5 4 2 5 -6 0 -11
-6 -13 -4 -8 8 8 20 5 21 -11 5z"/>
<path d="M1907 419 c7 -7 15 -10 18 -7 3 3 -2 9 -12 12 -14 6 -15 5 -6 -5z"/>
<path d="M2075 420 c-3 -5 -1 -10 4 -10 6 0 11 5 11 10 0 6 -2 10 -4 10 -3 0
-8 -4 -11 -10z"/>
<path d="M1728 413 c-10 -2 -18 -9 -18 -15 0 -6 3 -8 7 -5 3 4 11 3 17 -3 8
-6 12 -3 12 11 0 10 0 18 -1 18 0 -1 -8 -3 -17 -6z"/>
<path d="M1893 395 c0 -7 6 -11 14 -8 7 3 13 6 13 8 0 2 -6 5 -13 8 -8 3 -14
-1 -14 -8z"/>
<path d="M1948 392 c-4 -12 1 -18 13 -18 12 0 15 4 9 12 -6 6 -7 14 -3 17 3 4
2 7 -4 7 -6 0 -13 -8 -15 -18z"/>
<path d="M2019 393 c-13 -17 -13 -17 6 -3 11 8 22 16 24 17 2 2 0 3 -6 3 -6 0
-17 -8 -24 -17z"/>
<path d="M845 380 c-3 -6 1 -7 9 -4 18 7 21 14 7 14 -6 0 -13 -4 -16 -10z"/>
<path d="M1530 380 c0 -5 5 -10 11 -10 5 0 7 5 4 10 -3 6 -8 10 -11 10 -2 0
-4 -4 -4 -10z"/>
<path d="M1575 380 c-3 -5 -3 -10 1 -10 3 0 -4 -8 -16 -18 -18 -14 -19 -19 -7
-19 9 0 13 5 10 10 -4 6 0 8 8 5 11 -4 15 1 15 18 0 26 -2 29 -11 14z"/>
<path d="M1678 372 c4 -11 1 -13 -8 -7 -9 5 -11 4 -6 -3 10 -16 14 -15 25 6 7
14 6 19 -4 19 -7 0 -11 -7 -7 -15z"/>
<path d="M1803 373 c-3 -10 -8 -21 -10 -25 -2 -4 2 -10 9 -14 7 -4 10 -4 6 0
-4 5 -3 19 2 32 5 13 7 24 4 24 -2 0 -7 -8 -11 -17z"/>
<path d="M2050 379 c0 -5 5 -7 10 -4 6 3 10 8 10 11 0 2 -4 4 -10 4 -5 0 -10
-5 -10 -11z"/>
<path d="M1916 367 c3 -10 9 -15 12 -12 3 3 0 11 -7 18 -10 9 -11 8 -5 -6z"/>
<path d="M950 366 c0 -2 7 -7 16 -10 8 -3 12 -2 9 4 -6 10 -25 14 -25 6z"/>
<path d="M1821 354 c0 -11 3 -14 6 -6 3 7 2 16 -1 19 -3 4 -6 -2 -5 -13z"/>
<path d="M1860 355 c-11 -13 -10 -14 5 -9 11 5 16 4 12 -3 -3 -5 0 -10 8 -10
10 0 12 4 5 12 -5 7 -7 15 -3 18 3 4 2 7 -4 7 -6 0 -16 -7 -23 -15z"/>
<path d="M1985 359 c-3 -4 2 -6 10 -5 21 3 28 13 10 13 -9 0 -18 -4 -20 -8z"/>
<path d="M1596 335 c-9 -26 -7 -32 5 -12 6 10 9 21 6 23 -2 3 -7 -2 -11 -11z"/>
<path d="M1951 333 c7 -12 15 -20 18 -17 3 2 -3 12 -13 22 -17 16 -18 16 -5
-5z"/>
<path d="M973 325 c0 -8 4 -12 9 -9 5 3 6 10 3 15 -9 13 -12 11 -12 -6z"/>
<path d="M1435 329 c-4 -6 -5 -12 -2 -15 2 -3 7 2 10 11 7 17 1 20 -8 4z"/>
<path d="M1040 326 c0 -2 8 -10 18 -17 15 -13 16 -12 3 4 -13 16 -21 21 -21
13z"/>
<path d="M1826 318 c3 -4 9 -8 15 -8 5 0 9 4 9 8 0 5 -7 9 -15 9 -8 0 -12 -4
-9 -9z"/>
<path d="M1475 311 c-6 -11 13 -26 22 -17 4 3 1 6 -6 6 -7 0 -9 5 -6 10 3 6 4
10 1 10 -3 0 -7 -4 -11 -9z"/>
<path d="M1869 303 c-13 -16 -12 -17 4 -4 16 13 21 21 13 21 -2 0 -10 -8 -17
-17z"/>
<path d="M1395 301 c6 -11 4 -13 -10 -7 -15 5 -16 4 -5 -9 7 -8 16 -15 20 -15
10 0 7 27 -5 37 -4 5 -5 2 0 -6z"/>
<path d="M1548 295 c6 -11 11 -24 12 -30 1 -5 4 -12 7 -15 4 -3 2 1 -2 9 -6
11 -4 13 8 8 11 -4 14 -2 10 9 -3 8 -8 12 -11 10 -3 -3 -11 2 -19 12 -13 16
-13 15 -5 -3z"/>
<path d="M1895 289 c-4 -6 -5 -12 -2 -15 2 -3 7 2 10 11 7 17 1 20 -8 4z"/>
<path d="M1120 280 c-9 -6 -10 -10 -3 -10 6 0 15 5 18 10 8 12 4 12 -15 0z"/>
<path d="M1467 279 c7 -7 15 -10 18 -7 3 3 -2 9 -12 12 -14 6 -15 5 -6 -5z"/>
<path d="M1813 275 c0 -8 4 -12 9 -9 5 3 6 10 3 15 -9 13 -12 11 -12 -6z"/>
<path d="M1146 263 c-6 -14 -5 -15 5 -6 7 7 10 15 7 18 -3 3 -9 -2 -12 -12z"/>
<path d="M1216 262 c-2 -4 -1 -14 3 -20 6 -10 11 -9 21 3 11 13 10 14 -5 9
-13 -5 -16 -4 -11 4 4 7 5 12 2 12 -3 0 -7 -4 -10 -8z"/>
<path d="M1437 257 c4 -6 -1 -8 -11 -4 -9 4 -15 3 -12 -2 9 -14 45 -20 53 -9
4 7 1 8 -7 3 -9 -6 -12 -4 -8 7 4 8 0 15 -8 15 -7 0 -10 -5 -7 -10z"/>
<path d="M1512 255 c4 -4 0 -14 -10 -21 -15 -12 -15 -12 6 -7 24 6 29 18 10
29 -7 4 -10 4 -6 -1z"/>
<path d="M1595 249 c-4 -6 -5 -12 -2 -15 2 -3 7 2 10 11 7 17 1 20 -8 4z"/>
<path d="M1360 229 c13 -23 22 -25 13 -2 -5 12 -3 14 8 8 8 -5 11 -4 6 0 -4 5
-14 10 -22 11 -12 2 -12 -2 -5 -17z"/>
<path d="M1614 239 c-3 -6 -3 -13 0 -16 3 -4 6 -1 6 5 0 6 7 9 15 6 8 -4 15
-4 15 -1 0 11 -30 16 -36 6z"/>
<path d="M1799 233 c-13 -16 -12 -17 4 -4 16 13 21 21 13 21 -2 0 -10 -8 -17
-17z"/>
<path d="M1195 220 c6 -30 16 -40 12 -12 -2 12 -6 24 -10 28 -3 4 -4 -4 -2
-16z"/>
<path d="M1155 220 c3 -5 8 -10 11 -10 2 0 4 5 4 10 0 6 -5 10 -11 10 -5 0 -7
-4 -4 -10z"/>
<path d="M1550 215 c5 -7 6 -15 2 -20 -4 -4 3 -2 16 4 26 14 30 23 5 14 -10
-4 -14 -2 -10 4 3 5 0 10 -8 10 -10 0 -12 -4 -5 -12z"/>
<path d="M1676 222 c-2 -4 -1 -14 3 -20 6 -10 11 -9 21 3 11 13 10 14 -5 9
-13 -5 -16 -4 -11 4 4 7 5 12 2 12 -3 0 -7 -4 -10 -8z"/>
<path d="M1319 208 c15 -21 31 -23 31 -6 0 6 -3 8 -7 5 -3 -4 -13 -1 -22 6
-14 11 -14 10 -2 -5z"/>
<path d="M1465 200 c-3 -6 1 -7 9 -4 18 7 21 14 7 14 -6 0 -13 -4 -16 -10z"/>
<path d="M1716 202 c-3 -5 1 -9 9 -9 8 0 12 4 9 9 -3 4 -7 8 -9 8 -2 0 -6 -4
-9 -8z"/>
<path d="M1656 187 c3 -10 9 -15 12 -12 3 3 0 11 -7 18 -10 9 -11 8 -5 -6z"/>
<path d="M1428 183 c7 -3 16 -2 19 1 4 3 -2 6 -13 5 -11 0 -14 -3 -6 -6z"/>
<path d="M1590 180 c0 -5 5 -10 10 -10 6 0 10 5 10 10 0 6 -4 10 -10 10 -5 0
-10 -4 -10 -10z"/>
<path d="M1514 152 c3 -5 0 -13 -6 -15 -9 -4 -10 -6 -1 -6 17 -1 25 16 12 25
-7 4 -9 3 -5 -4z"/>
<path d="M1547 129 c4 -13 8 -18 11 -10 2 7 -1 18 -6 23 -8 8 -9 4 -5 -13z"/>
<path d="M1575 129 c-4 -6 -5 -12 -2 -15 2 -3 7 2 10 11 7 17 1 20 -8 4z"/>
<path d="M1366 121 c3 -3 11 -6 17 -6 7 -1 11 -6 10 -11 -1 -6 5 -11 13 -11
12 0 12 3 -1 17 -8 9 -22 17 -30 17 -8 0 -12 -3 -9 -6z"/>
<path d="M1434 105 c1 -8 6 -18 11 -22 4 -4 5 -3 2 4 -4 6 -2 13 5 15 8 3 6 6
-4 10 -10 4 -15 2 -14 -7z"/>
</g>
</svg>
