<?xml version="1.0" standalone="no"?>
<!DOCTYPE svg PUBLIC "-//W3C//DTD SVG 20010904//EN"
 "http://www.w3.org/TR/2001/REC-SVG-20010904/DTD/svg10.dtd">
<svg version="1.0" xmlns="http://www.w3.org/2000/svg"
 width="1042.000000pt" height="1042.000000pt" viewBox="0 0 1042.000000 1042.000000"
 preserveAspectRatio="xMidYMid meet">
<metadata>
Created by potrace 1.11, written by Peter Selinger 2001-2013
</metadata>
<g transform="translate(0.000000,1042.000000) scale(0.100000,-0.100000)"
fill="#000000" stroke="none">
<path d="M0 10330 c0 -53 4 -90 10 -90 6 0 10 -7 10 -15 0 -8 -4 -15 -10 -15
-7 0 -10 -480 -10 -1421 0 -874 4 -1418 9 -1414 5 3 12 1 16 -5 4 -6 61 -10
141 -10 152 0 227 -13 222 -39 -5 -24 -86 -39 -223 -40 -66 -1 -130 -4 -142
-7 l-23 -6 0 -3634 0 -3634 5210 0 5210 0 0 4445 c0 2957 -3 4445 -10 4445 -5
0 -10 11 -10 25 0 14 5 25 10 25 7 0 10 253 10 740 l0 740 -79 0 c-63 0 -80
-3 -85 -16 -3 -9 -6 -89 -6 -179 0 -135 -3 -166 -16 -179 -19 -20 -29 -20 -48
-1 -12 12 -14 42 -11 173 2 86 1 167 -2 180 l-5 22 -5084 0 -5084 0 0 -90z
m9128 -2 c17 -17 16 -78 -2 -78 -20 0 -59 57 -52 75 7 18 37 20 54 3z m-294
-12 c-7 -17 -32 -28 -45 -20 -14 8 10 34 32 34 12 0 16 -5 13 -14z m-2584 -22
c20 -23 14 -333 -6 -354 -11 -11 -19 -12 -32 -4 -15 10 -17 30 -17 170 0 87 3
169 7 182 9 26 30 29 48 6z m-950 -127 c19 -13 78 -46 130 -74 139 -74 335
-183 457 -256 60 -36 180 -104 268 -152 88 -48 180 -100 205 -115 25 -16 106
-62 180 -103 471 -260 573 -319 645 -369 44 -30 105 -68 135 -83 30 -15 109
-60 175 -100 154 -92 410 -241 500 -290 39 -21 102 -60 140 -86 79 -53 236
-144 328 -191 34 -17 78 -43 97 -57 52 -40 239 -147 283 -161 21 -6 61 -28 90
-47 68 -46 329 -204 386 -233 25 -12 81 -46 125 -74 45 -29 93 -60 107 -69
l26 -16 -4 -368 c-2 -202 -8 -478 -14 -613 -7 -135 -11 -258 -10 -275 1 -30 3
-210 17 -1480 5 -390 8 -1049 9 -1464 l0 -753 -40 -34 c-64 -55 -132 -95 -176
-105 -22 -5 -65 -25 -95 -44 -29 -19 -77 -46 -106 -61 -29 -14 -60 -32 -68
-39 -8 -7 -53 -32 -100 -56 -47 -25 -105 -58 -130 -75 -25 -17 -70 -44 -100
-59 -30 -15 -73 -40 -95 -55 -22 -15 -71 -47 -110 -69 -38 -23 -91 -55 -117
-71 -25 -15 -66 -39 -90 -53 -57 -32 -239 -136 -258 -148 -8 -4 -53 -30 -100
-55 -47 -26 -126 -71 -177 -101 -50 -29 -94 -53 -98 -53 -4 0 -19 -8 -33 -19
-15 -10 -47 -29 -72 -43 -96 -54 -225 -130 -251 -149 -15 -10 -32 -19 -37 -19
-5 0 -51 -27 -100 -60 -50 -33 -103 -65 -117 -70 -14 -5 -51 -26 -82 -46 -30
-19 -81 -48 -112 -63 -31 -15 -88 -46 -128 -69 -39 -23 -75 -42 -80 -42 -4 0
-32 -16 -61 -35 -29 -20 -90 -55 -135 -79 -45 -24 -107 -59 -137 -80 -30 -20
-64 -39 -75 -42 -11 -4 -56 -30 -100 -58 -44 -29 -98 -60 -119 -71 -22 -10
-69 -38 -105 -62 -36 -25 -76 -49 -89 -54 -13 -5 -42 -22 -65 -38 -23 -15 -77
-45 -121 -65 -43 -20 -93 -48 -111 -62 -17 -13 -34 -24 -37 -24 -3 0 -63 -32
-133 -70 -70 -39 -134 -70 -140 -70 -7 0 -23 8 -36 19 -21 16 -77 47 -248 138
-25 13 -52 29 -60 37 -9 7 -27 17 -40 21 -20 6 -140 69 -181 95 -8 6 -26 14
-40 20 -14 5 -32 14 -40 20 -35 22 -253 150 -256 150 -3 0 -28 15 -57 34 -60
39 -192 117 -275 163 -114 63 -129 71 -227 128 -55 32 -107 63 -115 70 -8 7
-26 16 -40 20 -14 4 -56 26 -95 48 -38 22 -88 49 -110 61 -50 28 -241 143
-275 166 -14 10 -43 27 -65 39 -22 12 -69 39 -104 61 -34 22 -65 40 -68 40 -3
0 -23 13 -46 29 -23 16 -81 50 -129 75 -48 26 -90 51 -93 56 -3 6 -14 10 -25
10 -10 0 -41 16 -70 35 -29 19 -57 35 -64 35 -7 0 -21 8 -32 17 -10 10 -32 25
-49 33 -68 34 -164 92 -175 105 -7 8 -18 15 -25 15 -10 0 -69 34 -175 100 -8
5 -51 31 -95 57 -44 25 -93 57 -108 70 -16 13 -36 23 -44 23 -9 0 -24 6 -32
14 -17 15 -195 119 -246 144 -16 8 -44 25 -62 38 -17 13 -34 24 -38 24 -15 0
-142 64 -160 81 -11 10 -36 25 -56 33 -19 8 -57 33 -85 56 -27 22 -74 49 -104
60 -30 11 -62 24 -70 29 -13 7 -15 132 -15 1022 -1 558 -4 1667 -8 2466 -5
1267 -4 1454 8 1467 8 8 41 29 72 47 32 18 74 45 93 60 20 15 108 66 197 112
89 47 226 123 305 168 78 46 186 106 238 134 81 44 209 116 360 202 172 99
346 208 355 223 4 6 30 22 58 34 60 27 137 81 137 96 0 21 -31 21 -73 1 -62
-30 -138 -37 -362 -30 -110 3 -240 1 -290 -4 -49 -5 -342 -7 -649 -5 l-559 5
-19 22 c-21 26 -23 44 -7 72 19 36 52 40 142 19 76 -18 119 -20 557 -20 325 0
486 4 510 11 53 17 628 30 720 16 177 -27 285 8 560 178 140 87 302 185 370
223 25 14 110 66 190 115 80 50 171 103 204 119 32 16 106 57 165 92 58 35
170 101 249 147 79 46 162 96 185 111 23 15 98 58 167 97 159 89 336 196 375
226 38 31 62 31 105 2z m3840 -151 c0 -26 -13 -40 -47 -50 -15 -5 -23 -3 -23
4 0 17 43 69 58 69 6 1 12 -10 12 -23z m-320 -37 c11 -19 9 -20 -17 -17 -17 2
-29 10 -31 21 -5 25 35 22 48 -4z m-1600 -364 c22 -20 43 -19 81 4 52 32 89 5
89 -64 0 -22 -7 -51 -16 -64 -14 -19 -22 -22 -53 -17 -106 19 -108 19 -178
-15 -37 -18 -70 -34 -73 -35 -3 -2 -12 1 -20 6 -11 7 -8 13 14 31 34 26 56 75
56 122 0 18 6 39 13 46 15 15 64 7 87 -14z m766 -116 c9 -14 -14 -29 -46 -29
-14 0 -31 4 -39 9 -23 15 -2 31 39 31 21 0 42 -5 46 -11z m-176 -9 c0 -5 -7
-10 -15 -10 -8 0 -15 5 -15 10 0 6 7 10 15 10 8 0 15 -4 15 -10z m2298 -560
c19 -7 30 -16 25 -20 -29 -26 -215 -40 -254 -20 -24 13 -25 36 -1 50 22 14
185 7 230 -10z m-685 -342 c8 -12 7 -21 -2 -32 -19 -22 -153 -23 -175 -1 -18
18 -11 44 15 53 33 13 151 -2 162 -20z m-8655 -1224 c24 -17 29 -53 10 -72
-29 -29 -108 -1 -108 38 0 21 35 50 60 50 9 0 26 -7 38 -16z m787 -6893 c66
-5 158 -6 205 -3 47 3 155 5 240 6 133 1 160 -2 183 -17 22 -14 25 -21 16 -35
-26 -41 -62 -56 -131 -57 -37 0 -68 3 -68 7 0 4 -82 4 -182 1 -101 -3 -216 -5
-256 -4 -41 1 -96 -3 -124 -10 -46 -12 -51 -12 -65 6 -10 14 -12 32 -8 60 8
50 23 68 49 60 12 -3 75 -10 141 -14z m-118 -230 c17 -16 32 -19 84 -15 35 2
78 5 94 8 97 15 124 18 217 21 72 2 118 -1 153 -12 28 -8 99 -16 160 -17 118
-3 176 -12 187 -29 10 -16 -2 -37 -22 -37 -10 0 -33 -6 -51 -14 -57 -23 -338
-33 -782 -26 -139 2 -159 19 -123 105 17 41 50 47 83 16z m-303 -47 c20 -19
20 -35 2 -59 -12 -17 -31 -18 -311 -16 -163 1 -303 5 -311 8 -23 9 -38 43 -24
57 7 7 98 13 278 16 147 3 286 7 309 8 27 1 47 -4 57 -14z"/>
<path d="M5165 9176 c-33 -6 -70 -17 -82 -24 -12 -6 -28 -12 -36 -12 -19 0
-159 -71 -172 -87 -5 -7 -32 -21 -60 -31 -64 -23 -115 -50 -115 -61 0 -5 -21
-19 -47 -32 -25 -12 -54 -30 -64 -38 -37 -33 -49 -41 -63 -41 -8 0 -17 -4 -21
-9 -6 -10 -129 -71 -144 -71 -5 0 -14 -7 -21 -15 -7 -9 -18 -14 -24 -12 -7 3
-32 -13 -56 -34 -24 -22 -51 -39 -58 -39 -23 0 -81 -31 -105 -56 -12 -13 -28
-24 -35 -24 -7 0 -23 -5 -35 -12 -12 -7 -26 -13 -32 -14 -11 -2 -68 -29 -106
-49 -14 -8 -38 -26 -53 -40 -15 -14 -31 -25 -35 -25 -4 0 -16 -9 -26 -20 -9
-10 -33 -24 -51 -30 -19 -7 -34 -16 -34 -21 0 -6 -20 -19 -45 -30 -25 -11 -45
-23 -45 -27 0 -4 -20 -13 -44 -20 -27 -7 -49 -21 -60 -37 -9 -14 -25 -25 -37
-25 -11 0 -22 -6 -25 -14 -3 -8 -25 -19 -49 -25 -24 -6 -48 -17 -52 -24 -9
-14 -38 -31 -158 -91 -62 -31 -95 -54 -106 -74 -12 -22 -26 -31 -57 -36 -22
-3 -47 -12 -54 -19 -21 -19 -66 -47 -78 -47 -10 0 -76 -44 -90 -61 -3 -3 -21
-11 -40 -18 -66 -25 -100 -42 -100 -50 0 -5 -13 -14 -30 -21 -17 -7 -30 -15
-30 -19 0 -4 -20 -13 -45 -20 -25 -7 -49 -19 -53 -25 -4 -7 -26 -23 -49 -36
-24 -13 -43 -28 -43 -34 0 -5 -3 -6 -7 -3 -3 4 -12 -2 -20 -13 -8 -11 -21 -20
-29 -20 -8 0 -13 -4 -10 -9 3 -5 -6 -12 -21 -16 -15 -3 -37 -17 -50 -31 -12
-13 -31 -24 -43 -24 -28 0 -104 -37 -135 -66 -14 -13 -32 -24 -39 -24 -7 0
-21 -11 -31 -24 -10 -13 -24 -22 -30 -20 -7 3 -33 -11 -59 -30 -25 -20 -50
-36 -55 -36 -5 0 -12 -8 -15 -17 -3 -10 -23 -35 -43 -57 -34 -36 -37 -44 -46
-130 -18 -176 -26 -791 -11 -819 7 -12 7 -39 2 -75 -4 -31 -8 -345 -8 -697 -1
-352 -1 -667 -2 -700 0 -33 0 -217 2 -410 1 -192 2 -465 1 -604 -2 -286 0
-295 58 -271 17 7 31 16 31 21 0 5 36 9 81 9 72 0 83 -3 99 -22 45 -56 45 -64
46 1050 1 576 2 1056 3 1067 1 11 -1 93 -5 182 -7 177 -2 230 23 235 15 3 15
4 0 20 -13 13 -17 36 -17 107 0 49 5 93 10 96 15 9 13 92 -2 97 -10 4 -14 69
-16 269 -3 260 -3 264 19 281 11 10 25 15 30 12 5 -3 6 2 3 10 -4 12 0 16 16
16 11 0 19 4 16 9 -8 13 4 42 15 35 5 -3 9 2 9 12 0 11 6 15 20 11 11 -3 23
-1 26 4 3 5 14 9 24 9 11 0 24 8 29 19 6 10 24 21 41 24 19 4 34 16 41 31 12
25 54 50 69 41 5 -3 14 4 20 15 6 11 19 20 30 20 10 0 22 5 25 11 4 6 13 8 21
5 10 -4 16 6 20 35 5 28 11 39 23 38 9 -1 33 -1 55 0 33 1 38 4 33 21 -4 17 0
20 26 22 18 0 38 2 46 2 8 1 22 15 31 31 12 22 27 32 58 39 26 5 42 14 42 24
0 9 7 13 20 9 11 -3 20 -1 20 4 0 5 7 9 16 9 9 0 18 9 21 20 3 11 11 20 18 20
7 0 15 4 17 9 1 5 16 11 33 13 17 2 40 14 53 31 13 15 32 27 43 27 10 0 19 5
19 12 0 6 3 8 7 5 3 -4 11 3 17 16 8 14 22 23 41 24 17 0 38 2 47 2 10 1 15 7
13 14 -5 12 37 37 64 37 9 1 35 18 58 39 32 29 41 43 36 59 -3 13 -1 22 6 22
6 0 11 -9 11 -21 0 -13 5 -19 13 -16 6 3 32 13 57 22 61 25 70 33 70 66 0 28
2 29 50 29 35 0 52 5 56 14 3 9 34 19 77 27 79 13 120 36 92 51 -15 9 -21 38
-7 38 11 -1 47 -30 36 -30 -5 0 -1 -5 8 -11 13 -7 37 -4 87 11 64 19 73 19
127 5 33 -8 93 -13 136 -12 82 2 115 -12 103 -45 -14 -36 -109 -53 -345 -64
-139 -6 -227 -24 -280 -59 -50 -32 -277 -155 -288 -155 -4 0 -24 -14 -43 -31
-19 -17 -92 -60 -164 -95 -71 -36 -141 -73 -155 -83 -14 -10 -54 -35 -90 -55
-36 -20 -96 -59 -135 -86 -38 -27 -75 -50 -81 -50 -5 0 -28 -13 -50 -29 -21
-16 -74 -47 -117 -69 -43 -23 -108 -61 -145 -84 -37 -24 -78 -48 -92 -54 -163
-72 -160 -70 -166 -144 -4 -46 -4 85 0 -1737 4 -1608 4 -1612 25 -1655 16 -34
33 -50 83 -77 35 -19 109 -63 166 -98 95 -59 258 -152 642 -368 80 -45 195
-111 257 -148 61 -36 164 -93 228 -127 64 -34 160 -90 214 -125 53 -34 132
-83 176 -108 44 -24 152 -86 240 -137 88 -51 218 -119 290 -151 83 -37 136
-67 148 -83 26 -36 127 -101 500 -321 112 -66 129 -67 212 -17 28 16 88 52
135 79 47 28 129 77 183 109 54 32 110 66 125 74 15 8 59 33 97 56 39 23 115
66 170 96 214 118 427 239 585 333 91 54 190 112 220 128 30 17 100 59 154 94
55 34 103 63 107 63 8 0 130 70 241 139 37 22 71 41 76 41 5 0 29 15 53 34 42
33 331 196 347 196 4 0 31 16 60 36 29 19 95 56 145 81 124 61 244 148 267
193 16 32 17 68 14 425 -2 223 -9 418 -15 455 -7 38 -8 87 -4 115 4 28 9 591
11 1252 l4 1203 -35 39 c-20 22 -53 48 -73 59 -20 11 -62 34 -92 51 -30 17
-73 41 -95 52 -22 11 -71 40 -110 65 -38 24 -81 50 -95 56 -14 7 -43 24 -65
38 -22 15 -60 39 -85 55 -25 16 -64 41 -87 57 -23 15 -45 28 -49 28 -4 0 -21
11 -38 24 -17 13 -51 33 -76 46 -25 12 -52 28 -60 35 -8 7 -52 32 -96 55 -45
22 -90 50 -99 60 -10 11 -28 20 -40 20 -12 0 -33 8 -46 18 -13 10 -69 43 -124
74 -194 107 -400 229 -403 238 -2 6 -9 10 -15 10 -7 0 -39 18 -72 40 -33 22
-65 40 -72 40 -6 0 -25 11 -41 25 -16 13 -40 29 -53 35 -13 5 -53 28 -89 49
-36 22 -87 51 -115 65 -27 14 -57 30 -65 36 -8 5 -26 15 -40 20 -14 6 -56 28
-95 50 -38 22 -88 48 -110 58 -22 11 -46 27 -54 36 -7 9 -19 16 -25 17 -6 0
-51 25 -101 54 -49 30 -117 69 -150 86 -77 41 -123 76 -130 100 -10 30 -58 24
-97 -11 -18 -16 -36 -30 -40 -30 -4 0 -28 -19 -54 -41 -26 -23 -82 -58 -123
-78 -42 -20 -134 -70 -206 -110 -71 -41 -148 -82 -170 -93 -22 -10 -62 -31
-90 -48 -27 -16 -68 -37 -90 -48 -22 -11 -65 -34 -95 -52 -131 -78 -223 -120
-262 -120 -22 0 -46 -7 -54 -15 -21 -20 -51 -19 -79 3 -22 18 -22 19 -4 30 10
7 30 12 44 12 14 0 25 4 25 8 0 11 55 42 74 42 8 0 27 11 42 25 15 14 33 25
40 25 7 0 11 6 9 13 -4 8 7 13 30 14 19 1 42 9 51 17 8 9 22 16 30 16 8 0 14
4 14 8 0 14 36 52 49 52 6 0 11 4 11 10 0 5 23 12 51 16 28 4 56 12 62 18 7 6
24 17 40 23 19 9 27 20 27 38 0 23 3 25 50 25 35 0 52 4 56 15 3 8 22 17 41
21 39 7 122 79 86 73 -20 -3 -34 2 -28 11 3 6 28 10 55 10 27 0 51 4 54 9 4 5
29 15 56 22 28 7 50 16 50 21 0 4 6 8 13 8 7 0 17 10 22 23 6 12 17 22 25 22
8 0 25 6 38 13 12 7 22 10 22 6 0 -4 9 1 20 11 11 10 20 14 20 10 0 -5 5 -4
12 3 7 7 20 12 30 12 9 0 27 14 40 30 12 17 26 30 30 30 5 0 7 -3 5 -7 -3 -5
6 -9 19 -9 13 -1 24 2 24 7 0 5 9 9 20 9 14 0 20 -6 18 -16 -2 -9 4 -20 12
-23 8 -4 33 -17 55 -28 22 -11 57 -23 78 -27 25 -5 37 -12 38 -24 0 -11 2 -12
6 -4 8 20 33 -6 33 -34 0 -20 5 -24 29 -24 17 0 33 -5 36 -10 4 -6 10 -8 15
-5 5 3 12 1 15 -5 4 -6 15 -8 25 -5 11 3 20 0 24 -10 4 -11 13 -14 26 -10 15
5 21 0 26 -22 10 -43 23 -53 65 -53 32 0 41 -4 49 -24 7 -19 16 -24 45 -24 38
0 65 -16 65 -39 0 -8 14 -19 30 -24 17 -6 30 -14 30 -19 0 -4 26 -13 58 -20
48 -10 62 -18 81 -46 15 -22 32 -34 47 -34 12 0 30 -7 38 -15 9 -9 38 -23 66
-31 35 -10 54 -22 61 -38 12 -26 95 -64 148 -68 23 -2 36 -8 39 -20 2 -10 8
-18 12 -18 5 0 10 -10 12 -22 2 -18 11 -24 34 -26 17 -2 42 -14 55 -28 22 -24
59 -33 59 -14 0 6 6 10 14 10 15 0 26 -21 26 -48 0 -18 42 -42 72 -42 10 0 18
-4 18 -10 0 -5 8 -6 17 -3 12 5 15 2 10 -9 -7 -19 33 -33 64 -23 16 5 19 1 19
-24 0 -20 7 -34 21 -41 11 -7 23 -9 26 -6 4 3 12 1 20 -5 7 -6 13 -8 13 -4 0
4 8 -2 18 -14 12 -15 33 -23 70 -28 40 -4 52 -10 52 -23 0 -10 8 -21 18 -24
23 -9 61 -31 75 -45 6 -6 21 -11 34 -11 13 0 23 -4 23 -10 0 -5 7 -10 15 -10
14 0 39 -34 40 -55 0 -5 18 -9 41 -7 34 3 42 0 54 -22 7 -14 19 -26 26 -26 15
0 59 -23 62 -32 1 -5 2 -12 2 -18 0 -12 80 -13 99 -1 9 6 12 20 9 40 -4 24 2
36 24 58 15 15 28 33 28 40 0 15 67 18 90 3 12 -7 13 -13 4 -28 -6 -9 -15 -33
-18 -52 -4 -19 -10 -42 -12 -51 -6 -20 -54 -32 -54 -14 0 7 -9 15 -19 18 -24
6 -32 -18 -17 -50 7 -18 17 -23 44 -23 29 0 33 -2 22 -15 -6 -8 -9 -22 -6 -32
8 -24 51 -44 65 -30 15 15 41 0 41 -23 0 -18 25 -27 62 -21 4 0 14 -14 22 -32
10 -26 23 -36 55 -45 23 -7 58 -24 78 -37 20 -14 43 -25 53 -25 9 0 22 -11 28
-25 6 -14 20 -26 29 -26 10 -1 28 -3 39 -4 19 -2 22 4 28 48 3 28 10 55 16 61
5 5 10 16 10 23 0 8 10 25 23 38 12 13 28 31 35 40 7 8 18 13 23 9 5 -3 8 0 7
7 -2 7 7 18 20 24 26 11 27 19 8 42 -8 10 -23 28 -33 40 -10 12 -29 24 -43 25
-14 2 -40 13 -57 26 -18 13 -46 22 -67 22 -25 0 -36 4 -36 15 0 8 -4 15 -8 15
-7 0 -57 35 -145 103 -16 12 -58 34 -95 50 -36 16 -79 43 -95 58 -16 16 -33
29 -38 29 -5 0 -9 6 -9 14 0 8 -24 21 -61 32 -33 10 -72 29 -85 41 -14 13 -32
23 -40 23 -7 0 -14 4 -14 8 0 4 -20 14 -45 21 -25 7 -53 23 -63 36 -10 12 -34
28 -55 36 -20 7 -37 16 -37 19 0 3 -16 14 -35 24 -19 11 -35 23 -35 29 0 5 -7
7 -15 3 -9 -3 -15 0 -15 9 0 8 -3 14 -7 14 -30 -5 -56 4 -60 19 -2 10 -21 24
-41 31 -20 8 -46 21 -57 31 -11 10 -30 21 -42 25 -13 3 -23 12 -23 18 0 12
-84 47 -114 47 -9 0 -16 5 -16 11 0 18 -32 38 -63 39 -16 0 -36 10 -49 25 -12
14 -27 25 -34 25 -8 0 -18 9 -24 21 -6 11 -19 19 -28 17 -10 -2 -38 16 -65 42
-34 31 -67 51 -111 65 -34 11 -72 30 -84 43 -12 12 -34 22 -48 22 -14 0 -22 4
-19 10 3 6 -1 7 -9 4 -9 -3 -16 -1 -16 6 0 6 -4 9 -8 6 -5 -3 -15 4 -22 15 -8
10 -20 19 -27 19 -7 0 -13 5 -13 10 0 6 -5 10 -10 10 -6 0 -30 9 -52 20 -23
11 -48 20 -55 20 -7 0 -10 6 -7 14 3 9 -14 21 -53 36 -32 13 -65 29 -74 37 -8
7 -21 13 -27 13 -7 0 -12 4 -12 9 0 5 -22 17 -49 26 -28 9 -56 26 -65 40 -9
13 -32 31 -51 39 -19 9 -50 23 -69 31 -19 9 -37 24 -41 34 -3 10 -11 18 -18
18 -24 -1 -77 16 -77 25 0 5 -4 7 -9 4 -5 -3 -11 3 -14 14 -3 11 -12 20 -21
20 -9 0 -16 5 -16 11 0 5 -4 7 -10 4 -5 -3 -10 -1 -10 4 0 6 -6 11 -14 11 -7
0 -19 7 -26 15 -7 9 -15 13 -18 10 -3 -3 -11 3 -18 14 -9 12 -32 21 -65 25
-29 4 -68 14 -87 22 -49 20 -126 24 -197 10z m-1565 -1251 c0 -8 -4 -15 -10
-15 -5 0 -10 7 -10 15 0 8 5 15 10 15 6 0 10 -7 10 -15z m-680 -435 c0 -5 -7
-10 -15 -10 -8 0 -15 5 -15 10 0 6 7 10 15 10 8 0 15 -4 15 -10z m-535 -279
c3 -5 1 -12 -5 -16 -5 -3 -10 1 -10 9 0 18 6 21 15 7z m-345 -511 c0 -22 -4
-40 -10 -40 -5 0 -10 18 -10 40 0 22 5 40 10 40 6 0 10 -18 10 -40z m3168
-202 c7 -7 12 -29 12 -50 0 -32 -4 -40 -25 -48 -27 -10 -74 2 -87 23 -16 26
-8 67 15 77 32 13 71 12 85 -2z m-6 -415 c25 -23 24 -70 -3 -78 -34 -11 -87 3
-94 26 -17 51 55 90 97 52z m-1134 -935 c17 -17 15 -26 -8 -38 -25 -13 -90 -3
-90 15 0 27 76 45 98 23z m-413 -18 c0 -8 -10 -16 -22 -18 -18 -3 -23 2 -23
18 0 16 5 21 23 18 12 -2 22 -10 22 -18z m2875 -2018 c19 -16 21 -22 11 -40
-14 -27 -67 -30 -112 -6 -29 15 -30 16 -14 34 16 18 37 25 76 29 9 0 27 -7 39
-17z m-1341 -16 c7 -42 -61 -55 -74 -15 -9 28 3 40 38 37 22 -2 33 -9 36 -22z
m1120 13 c35 -12 38 -21 15 -40 -22 -18 -759 -16 -780 2 -17 14 -18 36 -1 42
26 11 734 7 766 -4z m1169 -4 c18 -6 15 -32 -5 -40 -22 -9 -619 -18 -645 -9
-19 6 -26 50 -8 56 14 5 643 -2 658 -7z"/>
<path d="M9399 7461 c-17 -16 -50 -37 -73 -47 -22 -11 -51 -29 -64 -41 -13
-13 -28 -23 -35 -24 -33 -2 -64 -11 -91 -27 l-31 -18 1 -205 c1 -112 1 -231 1
-264 -1 -33 -2 -389 -2 -791 0 -612 2 -735 14 -757 12 -23 12 -31 0 -53 -10
-20 -14 -64 -13 -168 0 -78 0 -199 0 -271 -1 -407 0 -459 12 -463 14 -4 16
-59 3 -64 -5 -2 -11 -263 -13 -627 -3 -483 -6 -625 -16 -629 -6 -2 -12 -11
-12 -19 0 -9 -6 -13 -15 -9 -8 3 -30 -3 -48 -14 -17 -10 -63 -35 -102 -55 -92
-48 -134 -73 -152 -90 -8 -8 -20 -15 -27 -15 -7 0 -21 -8 -32 -17 -18 -17 -43
-29 -209 -109 -33 -16 -72 -41 -87 -55 -15 -14 -43 -35 -63 -45 -85 -44 -97
-51 -103 -60 -4 -5 -28 -19 -54 -32 -27 -13 -48 -27 -48 -32 0 -4 -8 -10 -17
-14 -31 -10 -164 -86 -180 -101 -8 -8 -21 -15 -29 -15 -15 0 -75 -28 -84 -39
-3 -3 -21 -14 -40 -24 -78 -42 -96 -53 -115 -74 -11 -13 -26 -23 -33 -23 -18
0 -71 -28 -112 -60 -19 -14 -54 -32 -78 -39 -23 -6 -57 -25 -76 -41 -18 -17
-37 -30 -41 -30 -7 0 -97 -59 -105 -70 -3 -3 -24 -11 -46 -18 -23 -7 -47 -19
-54 -27 -7 -8 -16 -12 -21 -9 -5 3 -9 0 -9 -5 0 -6 -8 -11 -19 -11 -10 0 -24
-7 -31 -15 -6 -8 -21 -17 -33 -21 -12 -4 -36 -22 -54 -40 -18 -19 -38 -34 -45
-34 -7 0 -26 -7 -43 -16 -16 -9 -69 -37 -118 -61 -48 -25 -91 -53 -97 -63 -5
-9 -23 -20 -41 -24 -17 -3 -52 -21 -78 -39 -25 -18 -67 -43 -93 -56 -27 -12
-48 -29 -48 -37 0 -9 -11 -14 -29 -14 -17 0 -32 -4 -35 -9 -3 -5 -18 -12 -33
-16 -16 -3 -36 -14 -46 -23 -10 -9 -42 -28 -70 -42 -29 -14 -56 -35 -61 -46
-9 -21 -56 -44 -88 -44 -9 0 -26 -11 -39 -25 -13 -13 -34 -25 -46 -25 -12 0
-27 -9 -33 -19 -6 -12 -26 -22 -50 -26 -27 -5 -46 -15 -57 -31 -8 -13 -21 -24
-29 -24 -7 0 -19 -9 -27 -20 -8 -11 -28 -23 -46 -26 -18 -4 -38 -15 -44 -25
-7 -11 -18 -19 -25 -19 -7 0 -23 -9 -34 -20 -12 -11 -27 -19 -33 -17 -5 2 -26
-9 -46 -24 -20 -16 -40 -29 -44 -29 -4 0 -19 -8 -33 -19 -15 -10 -40 -21 -55
-25 -15 -4 -25 -11 -22 -16 10 -17 -34 -31 -108 -34 -39 -2 -76 -5 -82 -6 -34
-8 -63 2 -69 23 -4 17 -18 28 -48 38 -24 8 -44 12 -46 11 -2 -2 -12 6 -21 17
-10 12 -21 21 -25 21 -3 0 -19 12 -35 28 -16 15 -47 33 -70 40 -22 6 -50 20
-61 30 -11 9 -24 17 -28 17 -30 3 -69 25 -113 67 -22 21 -66 43 -102 52 -15 4
-25 11 -22 16 4 6 -7 10 -24 10 -45 0 -84 18 -77 35 3 10 -3 17 -22 21 -33 9
-71 35 -72 50 0 10 -21 25 -40 28 -3 1 -21 11 -40 22 -19 12 -50 25 -68 29
-17 3 -32 10 -32 15 0 4 -21 14 -46 21 -28 9 -50 22 -56 35 -8 17 -52 43 -80
48 -4 0 -13 7 -20 13 -6 7 -18 13 -25 13 -6 0 -16 6 -20 13 -4 7 -30 24 -58
37 -27 14 -53 29 -56 34 -8 10 -77 36 -97 36 -7 0 -27 14 -45 30 -18 17 -38
28 -44 25 -7 -2 -13 0 -13 5 0 13 -37 50 -50 50 -6 0 -10 4 -10 9 0 13 -64 41
-93 41 -14 0 -27 7 -31 15 -3 8 -9 15 -13 14 -20 -3 -32 2 -37 19 -3 9 -24 26
-47 36 -22 11 -44 27 -49 36 -5 9 -28 23 -52 31 -23 7 -51 22 -60 31 -10 10
-29 18 -42 18 -12 0 -35 11 -49 24 -15 14 -37 27 -49 31 -46 14 -113 49 -126
67 -7 9 -31 23 -54 30 -24 7 -43 19 -46 30 -2 10 -21 23 -43 29 -21 7 -36 15
-34 19 2 3 -16 15 -41 25 -24 10 -44 22 -44 28 0 5 -6 4 -14 -2 -12 -10 -17
-8 -26 8 -6 12 -22 24 -36 27 -13 3 -29 15 -35 26 -6 11 -17 17 -24 14 -7 -2
-16 2 -19 10 -3 9 -10 13 -15 9 -6 -3 -13 1 -18 9 -12 21 -63 46 -95 46 -21 0
-28 5 -28 19 0 13 -11 23 -34 31 -19 6 -36 14 -38 18 -5 11 -65 42 -82 42 -9
0 -16 5 -16 10 0 6 -6 10 -13 10 -7 0 -28 16 -47 35 -19 19 -40 35 -47 35 -15
0 -55 21 -64 33 -3 4 -17 9 -30 11 -36 5 -59 17 -59 31 0 7 -8 15 -17 18 -28
9 -76 40 -95 62 -9 11 -17 16 -18 11 0 -5 -7 -3 -15 4 -8 7 -33 12 -55 12 -22
0 -40 2 -40 6 0 16 -75 84 -108 98 -50 20 -55 19 -108 -36 -34 -34 -57 -50
-75 -50 -37 0 -91 -29 -97 -52 -3 -12 -10 -17 -20 -13 -22 8 -82 -14 -82 -31
0 -7 20 -23 44 -34 24 -11 53 -31 64 -45 14 -17 30 -25 52 -25 23 0 38 -8 53
-26 17 -22 26 -25 61 -22 45 5 88 -15 80 -37 -3 -8 4 -16 18 -20 13 -4 31 -16
41 -26 17 -18 45 -16 59 4 4 6 13 4 23 -6 26 -27 35 -20 35 28 0 32 4 45 14
45 8 0 29 18 47 40 52 62 89 50 75 -25 -4 -21 -13 -35 -21 -35 -10 0 -15 -11
-15 -35 0 -24 5 -35 15 -35 24 0 19 -47 -6 -53 -30 -8 -23 -61 9 -65 12 -2 22
-9 22 -17 0 -7 11 -16 25 -19 14 -4 25 -13 25 -21 0 -15 9 -18 45 -16 22 2 72
-35 68 -49 -1 -5 12 -12 30 -16 42 -9 77 -32 77 -51 0 -11 9 -14 35 -11 19 2
35 0 35 -4 0 -4 9 -8 21 -8 14 0 19 -5 16 -15 -4 -10 5 -16 35 -22 39 -8 50
-18 62 -56 4 -13 16 -17 55 -17 41 0 51 -4 65 -25 10 -16 26 -25 42 -25 15 0
23 -4 19 -10 -12 -19 22 -57 56 -64 18 -3 38 -15 45 -25 8 -10 28 -21 46 -25
18 -3 46 -17 62 -31 17 -14 41 -28 55 -32 14 -3 34 -14 44 -24 14 -15 27 -18
57 -14 31 4 40 1 40 -10 0 -8 5 -15 10 -15 6 0 10 -9 10 -19 0 -25 10 -31 54
-33 24 -1 36 -7 39 -20 4 -13 14 -18 36 -18 25 0 36 -7 52 -34 16 -27 29 -36
61 -41 22 -4 48 -15 57 -24 9 -9 31 -23 49 -30 18 -7 32 -20 32 -28 0 -8 4
-11 10 -8 5 3 10 -2 10 -13 0 -14 6 -19 22 -18 13 1 34 -4 48 -11 14 -7 30
-13 37 -13 6 0 15 -9 18 -20 4 -13 15 -20 31 -20 15 0 24 -6 24 -15 0 -8 5
-15 11 -15 6 0 17 -7 26 -15 8 -8 18 -13 22 -11 9 6 82 -19 82 -27 -1 -4 -1
-11 -1 -16 0 -5 18 -12 40 -16 26 -4 46 -15 56 -30 9 -13 30 -26 49 -29 19 -4
35 -11 35 -16 0 -6 9 -10 20 -10 11 0 20 -4 20 -9 0 -5 8 -12 19 -16 10 -3 30
-16 44 -29 14 -13 43 -26 66 -30 24 -3 41 -12 41 -19 0 -8 20 -23 44 -35 24
-12 46 -31 49 -42 3 -13 14 -20 30 -20 14 0 29 -5 32 -11 4 -6 13 -8 20 -5 7
2 16 -2 19 -10 3 -9 10 -12 16 -9 5 3 10 2 10 -3 0 -6 14 -15 30 -21 17 -5 30
-7 30 -3 0 3 7 -3 15 -15 8 -12 36 -32 62 -45 26 -13 56 -30 65 -38 11 -8 36
-13 65 -12 33 1 42 -1 28 -7 -19 -8 -19 -8 0 -19 11 -6 14 -12 8 -12 -9 0 -7
-7 4 -20 12 -14 30 -20 60 -20 26 0 43 -5 43 -12 0 -6 3 -9 6 -5 4 3 13 -1 22
-9 12 -13 16 -13 23 -2 6 9 9 9 9 1 0 -6 8 -14 19 -18 10 -3 21 -18 24 -34 5
-23 13 -31 39 -36 58 -12 67 -16 73 -35 3 -11 12 -17 19 -14 8 3 22 -3 32 -14
25 -25 58 -42 84 -42 11 0 23 -6 26 -14 3 -8 12 -12 20 -9 8 3 14 1 14 -4 0
-12 50 -37 68 -34 6 1 12 -3 12 -8 0 -22 35 -51 61 -51 15 0 29 -7 33 -15 7
-18 23 -19 59 -2 15 7 25 18 22 25 -3 7 -1 11 4 8 5 -3 14 8 20 24 9 26 15 30
48 31 52 1 75 6 82 18 4 5 24 16 46 23 28 9 41 19 43 35 3 22 9 24 94 39 20 3
39 12 42 20 3 8 16 14 30 14 42 0 56 11 62 50 l6 38 49 -5 c39 -4 50 -1 55 11
3 9 16 16 28 16 32 0 54 21 58 55 3 28 6 30 43 31 63 1 144 57 145 100 0 25
23 34 89 34 30 0 42 4 38 13 -7 19 14 32 53 32 27 0 37 5 45 23 6 13 19 22 32
22 36 0 71 18 78 39 4 14 15 21 31 21 26 0 41 11 60 45 6 11 21 21 33 23 11 2
21 8 21 13 0 5 14 9 30 9 17 0 33 6 36 13 3 8 18 13 34 12 20 -1 30 3 30 12 0
8 5 11 10 8 6 -3 10 3 10 13 0 16 9 21 49 27 36 5 52 12 61 30 8 15 18 21 31
18 13 -4 28 4 44 21 25 28 33 56 15 56 -5 0 -10 5 -10 10 0 13 97 13 105 0 12
-20 26 -9 23 18 -3 25 0 27 34 28 42 1 78 27 78 56 0 16 6 19 33 17 39 -2 67
9 67 26 0 7 15 16 33 20 50 10 85 26 91 41 3 8 14 14 24 14 11 0 25 7 32 15 7
9 15 13 18 10 3 -3 11 4 19 14 7 11 27 22 43 26 22 5 30 12 30 29 0 16 7 22
27 24 15 1 30 7 33 13 4 5 11 9 16 7 13 -3 84 33 84 44 0 5 8 8 18 6 13 -2 17
4 16 28 -2 31 0 32 46 36 27 3 56 12 65 21 9 10 32 17 51 17 37 0 104 44 104
68 0 8 8 10 23 7 15 -4 30 2 48 19 16 14 35 23 45 20 32 -7 47 10 39 44 -5 23
-13 32 -33 35 -15 2 10 5 55 6 58 1 86 5 97 16 8 8 17 15 20 15 14 0 46 36 46
51 0 17 37 29 91 29 16 0 29 4 29 9 0 18 31 41 55 41 15 0 25 7 29 23 5 23 53
57 80 57 9 0 16 4 16 9 0 5 8 7 18 4 23 -6 82 44 82 69 0 25 37 37 93 31 29
-4 47 -2 47 5 0 5 16 17 36 27 22 10 41 28 47 46 9 22 18 29 39 29 35 0 80 21
75 34 -3 7 9 10 34 8 34 -4 40 -1 50 22 10 20 10 29 1 38 -16 16 -15 35 2 41
10 4 13 1 10 -8 -4 -10 5 -16 29 -20 51 -10 90 2 129 38 l35 32 2 425 c1 234
6 443 9 464 4 21 3 74 -2 116 -6 48 -6 120 0 186 7 80 6 125 -3 169 -8 40 -14
214 -17 515 -3 250 -8 497 -12 548 -4 64 -3 97 5 105 14 14 15 97 1 97 -14 0
-11 184 4 300 13 90 12 213 -2 234 -3 5 -7 190 -8 410 -2 234 1 393 6 381 6
-15 9 -4 9 38 1 32 -3 57 -9 57 -17 0 -12 218 6 275 11 34 15 83 14 150 -1 55
-2 109 -2 120 0 11 3 44 7 73 7 48 6 52 -13 52 -11 0 -35 -13 -53 -29z m-6029
-5925 c0 -3 -4 -8 -10 -11 -5 -3 -10 -1 -10 4 0 6 5 11 10 11 6 0 10 -2 10 -4z"/>
</g>
</svg>
